<?xml version="1.0" encoding="UTF-8" standalone="no"?>
<!DOCTYPE svg PUBLIC "-//W3C//DTD SVG 1.1//EN" "http://www.w3.org/Graphics/SVG/1.1/DTD/svg11.dtd">
<svg width="100%" height="100%" viewBox="0 0 250 250" version="1.1" xmlns="http://www.w3.org/2000/svg" xmlns:xlink="http://www.w3.org/1999/xlink" xml:space="preserve" xmlns:serif="http://www.serif.com/" style="fill-rule:evenodd;clip-rule:evenodd;stroke-linejoin:round;stroke-miterlimit:2;">
    <path d="M27.87,57.67L27.87,96.34L37.85,86.57L37.85,67.48L128.319,67.48L132.15,57.67L27.87,57.67Z" style="fill:rgb(152,44,44);fill-rule:nonzero;"/>
    <path d="M164.8,57.67L161.43,67.48L210.83,67.48L210.83,86.57L221.28,96.09L221.28,57.67L164.8,57.67Z" style="fill:rgb(152,44,44);fill-rule:nonzero;"/>
    <path d="M221.3,153.5L210.68,163.25L210.68,181.6L119.242,181.6L115.638,191.64L221.22,191.31L221.3,153.5Z" style="fill:rgb(152,44,44);fill-rule:nonzero;"/>
    <path d="M28.07,153.5L28.07,191.55L84.52,191.55L87.77,181.48L37.81,181.48L37.81,162.87L28.07,153.5Z" style="fill:rgb(152,44,44);fill-rule:nonzero;"/>
    <path d="M5.38,124.9L47.38,87.77L47.25,103.61L21.38,124.93L47.25,146.63L47.25,162.47L5.38,124.9Z" style="fill:rgb(152,44,44);fill-rule:nonzero;"/>
    <path d="M201.7,88.01L244.6,124.76L201.7,162.33L201.7,146.49L226.96,124.92L201.7,103.72L201.7,88.01Z" style="fill:rgb(152,44,44);fill-rule:nonzero;"/>
    <path d="M145,49.81L90.95,198.91L103.97,198.91L157.51,49.71L145,49.79L145,49.81Z" style="fill:rgb(56,56,56);fill-rule:nonzero;"/>
    <path d="M58.19,94.71L58.19,154.32L83.17,154.32C91.72,154.32 98.14,151.49 102.19,148.96L114.06,116.48C110.69,104.73 100.91,94.71 84.61,94.71L58.19,94.71ZM70.79,106.62L83.17,106.62C93.61,106.62 101.02,114.23 101.02,124.71L101.02,125.01C101.02,135.49 92.56,142.79 83.17,142.79L70.79,142.79L70.79,106.62Z" style="fill:rgb(152,44,44);fill-rule:nonzero;"/>
    <path d="M145.7,102.7L159.32,120.97L177.25,94.61L191.27,94.61L191.27,154.49L178.17,154.49L178.17,115.42L159.32,142.44L141.3,117.18L145.7,102.7Z" style="fill:rgb(152,44,44);fill-rule:nonzero;"/>
    <path d="M140.1,119.2L126.87,154.47L140.1,154.47L140.1,119.2Z" style="fill:rgb(152,44,44);fill-rule:nonzero;"/>
</svg>
